<?xml version="1.0" encoding="UTF-8" standalone="no"?>
<svg
   viewBox="0 0 510 580"
   height="580"
   width="510"
   xml:space="preserve"
   id="svg2"
   version="1.1"
   sodipodi:docname="logo_only.svg"
   inkscape:version="1.1.2 (b8e25be833, 2022-02-05)"
   xmlns:inkscape="http://www.inkscape.org/namespaces/inkscape"
   xmlns:sodipodi="http://sodipodi.sourceforge.net/DTD/sodipodi-0.dtd"
   xmlns="http://www.w3.org/2000/svg"
   xmlns:svg="http://www.w3.org/2000/svg"
   xmlns:rdf="http://www.w3.org/1999/02/22-rdf-syntax-ns#"
   xmlns:cc="http://creativecommons.org/ns#"
   xmlns:dc="http://purl.org/dc/elements/1.1/"><sodipodi:namedview
     id="namedview170"
     pagecolor="#ffffff"
     bordercolor="#666666"
     borderopacity="1.0"
     inkscape:pageshadow="2"
     inkscape:pageopacity="0.0"
     inkscape:pagecheckerboard="0"
     showgrid="false"
     height="840px"
     inkscape:zoom="0.57708333"
     inkscape:cx="703.53791"
     inkscape:cy="304.11552"
     inkscape:window-width="1920"
     inkscape:window-height="1018"
     inkscape:window-x="-8"
     inkscape:window-y="-8"
     inkscape:window-maximized="1"
     inkscape:current-layer="svg2" /><metadata
     id="metadata8"><rdf:RDF><cc:Work
         rdf:about=""><dc:format>image/svg+xml</dc:format><dc:type
           rdf:resource="http://purl.org/dc/dcmitype/StillImage" /></cc:Work></rdf:RDF></metadata><defs
     id="defs6"><clipPath
       id="clipPath18"
       clipPathUnits="userSpaceOnUse"><path
         id="path16"
         d="M 0,0 H 1080 V 1080 H 0 Z" /></clipPath><clipPath
       id="clipPath58"
       clipPathUnits="userSpaceOnUse"><path
         id="path56"
         d="M 500.72,697.84 H 971.17 V 371.28 H 500.72 Z" /></clipPath></defs><g
     transform="matrix(1.3333333,0,0,-1.3333333,-116.10108,1011.9856)"
     id="g10"><g
       id="g12"><g
         clip-path="url(#clipPath18)"
         id="g14"><g
           transform="translate(243.2295,390.9326)"
           id="g20"><path
             id="path22"
             style="fill:#00937c;fill-opacity:1;fill-rule:nonzero;stroke:none"
             d="m 0,0 -97.021,56.015 c -8.57,4.948 -13.895,14.169 -13.895,24.066 v 137.451 c 0,9.897 5.325,19.118 13.895,24.066 l 119.036,68.726 c 8.571,4.947 19.219,4.949 27.789,-0.001 l 119.037,-68.725 c 8.57,-4.948 13.894,-14.169 13.894,-24.066 V 80.081 c 0,-9.897 -5.324,-19.118 -13.895,-24.066 L 72.453,0.366 v 57.583 l 53.525,30.904 c 4.353,2.513 7.057,7.196 7.057,12.223 v 96.252 c 0,3.325 2.696,6.02 6.021,6.02 3.325,0 6.02,-2.695 6.02,-6.02 v -96.252 c 0,-9.315 -5.011,-17.994 -13.078,-22.651 L 84.494,50.998 V 21.221 l 78.326,45.222 c 4.857,2.804 7.874,8.03 7.874,13.638 v 137.451 c 0,5.608 -3.017,10.834 -7.873,13.638 L 43.783,299.896 c -4.857,2.806 -10.891,2.804 -15.747,0 L -91.001,231.17 c -4.857,-2.804 -7.874,-8.03 -7.874,-13.638 V 80.081 c 0,-5.608 3.017,-10.834 7.874,-13.638 l 78.96,-45.589 v 29.778 l -48.138,27.793 c -8.066,4.657 -13.078,13.336 -13.078,22.651 v 96.252 c 0,3.325 2.696,6.02 6.021,6.02 3.325,0 6.02,-2.695 6.02,-6.02 v -96.252 c 0,-5.027 2.704,-9.71 7.057,-12.223 L 0,57.583 Z" /></g><g
           transform="translate(287.3066,337.7666)"
           id="g24"><path
             id="path26"
             style="fill:#00937c;fill-opacity:1;fill-rule:nonzero;stroke:none"
             d="m 0,0 v 133.385 l 51.694,29.845 c 2.338,1.35 3.79,3.866 3.79,6.566 v 115.07 c 0,3.324 2.696,6.021 6.021,6.021 3.325,0 6.02,-2.697 6.02,-6.021 v -115.07 c 0,-6.989 -3.759,-13.5 -9.811,-16.993 L 12.041,126.434 V 20.854 l 138.925,80.209 c 4.857,2.805 7.874,8.03 7.874,13.637 v 174.661 c 0,5.608 -3.017,10.834 -7.874,13.638 l -151.26,87.33 c -4.856,2.805 -10.89,2.805 -15.747,0 l -151.26,-87.33 c -4.856,-2.804 -7.873,-8.03 -7.873,-13.638 V 114.7 c 0,-5.607 3.017,-10.832 7.873,-13.637 L -28.375,20.854 v 105.58 l -45.674,26.369 c -6.052,3.493 -9.811,10.004 -9.811,16.993 v 115.07 c 0,3.324 2.695,6.021 6.02,6.021 3.326,0 6.021,-2.697 6.021,-6.021 v -115.07 c 0,-2.7 1.452,-5.215 3.789,-6.566 l 51.695,-29.845 V 0 l -156.986,90.636 c -8.57,4.948 -13.894,14.17 -13.894,24.064 v 174.661 c 0,9.896 5.324,19.117 13.894,24.066 l 151.258,87.33 c 8.572,4.947 19.22,4.948 27.79,0 l 151.26,-87.33 c 8.57,-4.949 13.894,-14.17 13.894,-24.066 V 114.7 c 0,-9.894 -5.324,-19.116 -13.894,-24.064 z" /></g><g
           transform="translate(279.1392,493.2148)"
           id="g28"><path
             id="path30"
             style="fill:#00937c;fill-opacity:1;fill-rule:nonzero;stroke:none"
             d="m 0,0 c -2.263,0 -4.525,0.583 -6.544,1.747 l -29.131,16.82 c -4.036,2.329 -6.544,6.672 -6.544,11.333 v 104.835 c 0,3.326 2.695,6.021 6.02,6.021 3.325,0 6.021,-2.695 6.021,-6.021 V 29.9 c 0,-0.372 0.2,-0.718 0.522,-0.904 l 29.133,-16.82 c 0.322,-0.187 0.723,-0.188 1.045,0 l 29.133,16.819 c 0.323,0.187 0.523,0.532 0.523,0.905 v 104.835 c 0,3.326 2.695,6.021 6.02,6.021 3.325,0 6.021,-2.695 6.021,-6.021 V 29.9 c 0,-4.661 -2.508,-9.004 -6.545,-11.334 L 6.543,1.747 C 4.525,0.583 2.263,0 0,0" /></g><g
           transform="translate(175.9761,609.4346)"
           id="g32"><path
             id="path34"
             style="fill:#00937c;fill-opacity:1;fill-rule:nonzero;stroke:none"
             d="m 0,0 c -4.178,0 -7.577,-3.399 -7.577,-7.577 0,-4.177 3.399,-7.576 7.577,-7.576 4.178,0 7.577,3.399 7.577,7.576 C 7.577,-3.399 4.178,0 0,0 m 0,-27.194 c -10.817,0 -19.618,8.8 -19.618,19.617 0,10.817 8.801,19.618 19.618,19.618 10.817,0 19.617,-8.801 19.617,-19.618 0,-10.817 -8.8,-19.617 -19.617,-19.617" /></g><g
           transform="translate(382.3311,609.4346)"
           id="g36"><path
             id="path38"
             style="fill:#00937c;fill-opacity:1;fill-rule:nonzero;stroke:none"
             d="m 0,0 c -4.178,0 -7.577,-3.399 -7.577,-7.577 0,-4.177 3.399,-7.576 7.577,-7.576 4.178,0 7.577,3.399 7.577,7.576 C 7.577,-3.399 4.178,0 0,0 m 0,-27.194 c -10.817,0 -19.618,8.8 -19.618,19.617 0,10.817 8.801,19.618 19.618,19.618 10.817,0 19.618,-8.801 19.618,-19.618 0,-10.817 -8.801,-19.617 -19.618,-19.617" /></g><g
           transform="translate(242.9404,649.1255)"
           id="g40"><path
             id="path42"
             style="fill:#00937c;fill-opacity:1;fill-rule:nonzero;stroke:none"
             d="m 0,0 c -4.178,0 -7.577,-3.399 -7.577,-7.577 0,-4.178 3.399,-7.577 7.577,-7.577 4.178,0 7.577,3.399 7.577,7.577 C 7.577,-3.399 4.178,0 0,0 m 0,-27.195 c -10.817,0 -19.617,8.8 -19.617,19.618 0,10.817 8.8,19.618 19.617,19.618 10.817,0 19.618,-8.801 19.618,-19.618 0,-10.818 -8.801,-19.618 -19.618,-19.618" /></g><g
           transform="translate(315.3374,649.1255)"
           id="g44"><path
             id="path46"
             style="fill:#00937c;fill-opacity:1;fill-rule:nonzero;stroke:none"
             d="m 0,0 c -4.178,0 -7.577,-3.399 -7.577,-7.577 0,-4.178 3.399,-7.577 7.577,-7.577 4.178,0 7.577,3.399 7.577,7.577 C 7.577,-3.399 4.178,0 0,0 m 0,-27.195 c -10.817,0 -19.617,8.8 -19.617,19.618 0,10.817 8.8,19.618 19.617,19.618 10.817,0 19.618,-8.801 19.618,-19.618 0,-10.818 -8.801,-19.618 -19.618,-19.618" /></g><g
           transform="translate(279.1392,532.7871)"
           id="g48"><path
             id="path50"
             style="fill:#00937c;fill-opacity:1;fill-rule:nonzero;stroke:none"
             d="m 0,0 c -3.325,0 -6.02,2.695 -6.02,6.02 v 79.353 c 0,3.325 2.695,6.02 6.02,6.02 3.325,0 6.02,-2.695 6.02,-6.02 V 6.02 C 6.02,2.695 3.325,0 0,0" /></g><g
           id="g52"><g
             id="g54" /><g
             id="g338"><g
               id="g336"
               clip-path="url(#clipPath58)"><g
                 id="g62"
                 transform="translate(971.1699,625.7202)"><path
                   id="path60"
                   style="fill:#ffffff;fill-opacity:1;fill-rule:nonzero;stroke:none"
                   d="M 0,0 V -50.4 H -7.92 V -48.82 0 Z" /></g><g
                 id="g66"
                 transform="translate(966.9502,398.2998)"><path
                   id="path64"
                   style="fill:#ffffff;fill-opacity:1;fill-rule:nonzero;stroke:none"
                   d="M 0,0 -6.681,-19.42 H -9.86 v 1.22 L -4,0 Z" /></g><g
                 id="g70"
                 transform="translate(963.25,576.8999)"><path
                   id="path68"
                   style="fill:#ffffff;fill-opacity:1;fill-rule:nonzero;stroke:none"
                   d="m 0,0 v -1.58 h -7.56 l -20.31,48.82 v 1.58 h 7.49 z" /></g><g
                 id="g74"
                 transform="translate(957.0898,380.0996)"><path
                   id="path72"
                   style="fill:#ffffff;fill-opacity:1;fill-rule:nonzero;stroke:none"
                   d="m 0,0 v -1.22 h -3.47 l -6.69,19.42 h 4.261 z" /></g><g
                 id="g78"
                 transform="translate(930.8398,390.3604)"><path
                   id="path76"
                   style="fill:#ffffff;fill-opacity:1;fill-rule:nonzero;stroke:none"
                   d="M 0,0 H 11.73 C 11.4,1.439 10.71,2.609 9.65,3.51 8.59,4.409 7.33,4.859 5.86,4.859 4.42,4.859 3.17,4.409 2.11,3.51 1.05,2.609 0.351,1.439 0,0 m 13.33,4.97 c 1.92,-2.22 2.7,-4.92 2.35,-8.09 H -0.109 C 0.16,-4.69 0.87,-5.96 2.021,-6.94 3.16,-7.91 4.54,-8.4 6.16,-8.4 c 1.25,0 2.361,0.309 3.34,0.929 0.99,0.62 1.75,1.46 2.3,2.531 l 3.29,-1.491 c -0.85,-1.639 -2.06,-2.96 -3.63,-3.949 -1.56,-0.98 -3.37,-1.48 -5.41,-1.48 -2.86,0 -5.27,0.96 -7.21,2.889 -1.94,1.92 -2.91,4.321 -2.91,7.181 0,2.859 0.95,5.26 2.86,7.199 1.9,1.941 4.26,2.91 7.07,2.91 3.07,0 5.55,-1.12 7.47,-3.349" /></g><g
                 id="g82"
                 transform="translate(935.3799,624.1401)"><path
                   id="path80"
                   style="fill:#ffffff;fill-opacity:1;fill-rule:nonzero;stroke:none"
                   d="M 0,0 V -48.82 H -7.99 V 1.58 H 0 Z" /></g><g
                 id="g86"
                 transform="translate(926.4697,398.2998)"><path
                   id="path84"
                   style="fill:#ffffff;fill-opacity:1;fill-rule:nonzero;stroke:none"
                   d="m 0,0 -8.96,-27.02 h -4 l 2.54,7.6 0.38,1.101 L -4,0 Z" /></g><g
                 id="g90"
                 transform="translate(907.0898,594.6201)"><path
                   id="path88"
                   style="fill:#ffffff;fill-opacity:1;fill-rule:nonzero;stroke:none"
                   d="M 0,0 -10.229,28.8 -20.52,0 Z M -3.03,31.1 15.4,-19.3 H 6.91 L 2.59,-7.13 h -25.71 l -4.319,-12.17 h -8.131 l 18.43,50.4 z" /></g><g
                 id="g94"
                 transform="translate(910.71,398.2998)"><path
                   id="path92"
                   style="fill:#ffffff;fill-opacity:1;fill-rule:nonzero;stroke:none"
                   d="M 0,0 5.72,-18.319 5.34,-19.42 H 2.24 L -4.25,0 Z" /></g><g
                 id="g98"
                 transform="translate(901.1104,387.2402)"><path
                   id="path96"
                   style="fill:#ffffff;fill-opacity:1;fill-rule:nonzero;stroke:none"
                   d="M 0,0 V 1.06 C -0.29,0.56 -1.021,0.24 -2.16,0.109 L -5.78,-0.34 c -0.95,-0.131 -1.7,-0.41 -2.26,-0.86 -0.561,-0.441 -0.84,-1.04 -0.84,-1.8 0,-0.76 0.279,-1.37 0.84,-1.82 0.56,-0.46 1.31,-0.69 2.26,-0.69 1.61,0 2.979,0.55 4.099,1.65 C -0.561,-2.75 0,-1.471 0,0 M 3.93,4.37 V -8.36 H 0 v 5.17 c -1.17,-3.701 -3.521,-5.55 -7.051,-5.55 -1.649,0 -3.019,0.5 -4.109,1.5 -1.101,1 -1.641,2.309 -1.641,3.929 0,1.901 0.651,3.331 1.981,4.281 1.309,0.95 2.99,1.54 5.04,1.77 l 3.689,0.38 C -0.69,3.24 0,3.88 0,5.02 0,5.95 -0.351,6.7 -1.061,7.26 -1.771,7.819 -2.7,8.09 -3.841,8.09 -5.011,8.09 -6,7.79 -6.811,7.18 -7.62,6.569 -8.141,5.689 -8.36,4.52 l -3.88,0.95 c 0.34,1.83 1.28,3.28 2.8,4.349 1.509,1.08 3.379,1.62 5.599,1.62 2.29,0 4.151,-0.609 5.601,-1.83 1.439,-1.21 2.17,-2.96 2.17,-5.239" /></g><g
                 id="g102"
                 transform="translate(902.6904,482.9199)"><path
                   id="path100"
                   style="fill:#ffffff;fill-opacity:1;fill-rule:nonzero;stroke:none"
                   d="M 0,0 -19.15,-32.979 V -43.27 -50.4 l -7.951,0.01 0.021,6.5 0.01,0.62 v 10.291 L -46.221,0 h 9.361 L -22.9,-25.13 -8.931,0 Z" /></g><g
                 id="g106"
                 transform="translate(896.3604,511.0498)"><path
                   id="path104"
                   style="fill:#ffffff;fill-opacity:1;fill-rule:nonzero;stroke:none"
                   d="m 0,0 v -7.13 h -32.261 v 50.4 h 7.99 V 0 Z" /></g><g
                 id="g110"
                 transform="translate(883.2998,395.7695)"><path
                   id="path108"
                   style="fill:#ffffff;fill-opacity:1;fill-rule:nonzero;stroke:none"
                   d="m 0,0 c 1.65,-1.939 2.47,-4.34 2.47,-7.199 0,-2.861 -0.82,-5.261 -2.47,-7.181 -1.64,-1.93 -3.689,-2.89 -6.16,-2.89 -1.79,0 -3.35,0.541 -4.69,1.621 -1.33,1.07 -2.29,2.54 -2.89,4.379 l 1,0.481 c 0.22,-0.341 0.48,-0.66 0.77,-0.971 1.19,-1.219 2.69,-1.819 4.5,-1.819 1.651,0 3.031,0.609 4.17,1.84 1.13,1.229 1.7,2.739 1.7,4.54 0,1.819 -0.57,3.349 -1.7,4.58 -1.139,1.229 -2.519,1.84 -4.17,1.84 -1.81,0 -3.31,-0.611 -4.5,-1.821 -0.29,-0.309 -0.55,-0.629 -0.77,-0.969 l -1,0.469 c 0.6,1.85 1.56,3.321 2.89,4.39 1.34,1.08 2.9,1.62 4.69,1.62 C -3.689,2.91 -1.64,1.94 0,0" /></g><g
                 id="g114"
                 transform="translate(877.0596,625.7202)"><path
                   id="path112"
                   style="fill:#ffffff;fill-opacity:1;fill-rule:nonzero;stroke:none"
                   d="M 0,0 V -7.13 H -16.27 V -50.4 h -7.919 V -7.13 H -40.46 V 0 Z" /></g><g
                 id="g118"
                 transform="translate(869.5596,392.6699)"><path
                   id="path116"
                   style="fill:#ffffff;fill-opacity:1;fill-rule:nonzero;stroke:none"
                   d="M 0,0 1,-0.47 C 0.33,-1.51 0,-2.71 0,-4.1 0,-5.47 0.33,-6.66 1,-7.689 L 0,-8.17 v -5.62 H -3.92 V 14.33 H 0 Z" /></g><g
                 id="g122"
                 transform="translate(854.6201,390.21)"><path
                   id="path120"
                   style="fill:#ffffff;fill-opacity:1;fill-rule:nonzero;stroke:none"
                   d="M 0,0 8.82,-11.33 H 3.85 l -6.5,8.36 -2.99,-3.27 v -5.09 H -9.561 V 16.79 H -5.64 V -0.99 l 8.07,9.08 h 4.93 z" /></g><g
                 id="g126"
                 transform="translate(843.7998,523.2197)"><path
                   id="path124"
                   style="fill:#ffffff;fill-opacity:1;fill-rule:nonzero;stroke:none"
                   d="M 0,0 -10.229,28.8 -20.52,0 Z M -3.03,31.1 15.4,-19.3 H 6.91 L 2.59,-7.13 h -25.71 l -4.319,-12.17 h -8.13 l 18.429,50.4 z" /></g><g
                 id="g130"
                 transform="translate(854.7402,482.9199)"><path
                   id="path128"
                   style="fill:#ffffff;fill-opacity:1;fill-rule:nonzero;stroke:none"
                   d="M 0,0 V -7.13 H -16.271 V -50.4 H -24.19 V -7.13 H -40.46 V 0 Z" /></g><path
                 id="path132"
                 style="fill:#ffffff;fill-opacity:1;fill-rule:nonzero;stroke:none"
                 d="m 840.66,378.88 h -3.92 v 19.42 h 3.92 z" /><g
                 id="g136"
                 transform="translate(840.4297,405.6299)"><path
                   id="path134"
                   style="fill:#ffffff;fill-opacity:1;fill-rule:nonzero;stroke:none"
                   d="m 0,0 c 0.48,-0.479 0.71,-1.06 0.71,-1.75 0,-0.68 -0.23,-1.26 -0.71,-1.74 -0.47,-0.48 -1.04,-0.72 -1.72,-0.72 -0.67,0 -1.25,0.24 -1.729,0.72 -0.49,0.48 -0.731,1.06 -0.731,1.74 0,0.69 0.241,1.271 0.731,1.75 C -2.97,0.48 -2.39,0.72 -1.72,0.72 -1.04,0.72 -0.47,0.48 0,0" /></g><g
                 id="g140"
                 transform="translate(833.79,398.4502)"><path
                   id="path138"
                   style="fill:#ffffff;fill-opacity:1;fill-rule:nonzero;stroke:none"
                   d="M 0,0 V -3.8 C -2.07,-3.22 -3.83,-3.4 -5.29,-4.351 -6.74,-5.3 -7.47,-6.71 -7.47,-8.59 v -10.98 h -3.92 v 19.42 h 3.92 v -5.13 c 0.62,2.3 1.6,3.86 2.93,4.67 C -3.21,0.2 -1.7,0.41 0,0" /></g><g
                 id="g144"
                 transform="translate(833.3604,612.6201)"><path
                   id="path142"
                   style="fill:#ffffff;fill-opacity:1;fill-rule:nonzero;stroke:none"
                   d="m 0,0 -8.07,-1.66 c -0.43,2.54 -1.58,4.61 -3.451,6.19 -1.87,1.59 -4.25,2.38 -7.129,2.38 -2.691,0 -4.901,-0.66 -6.621,-1.98 C -27,3.61 -27.86,1.96 -27.86,0 c 0,-1.73 0.69,-3.17 2.08,-4.32 1.389,-1.15 3.15,-1.98 5.259,-2.49 2.111,-0.5 4.391,-1.15 6.84,-1.94 2.451,-0.79 4.731,-1.66 6.84,-2.59 2.111,-0.94 3.861,-2.45 5.25,-4.54 1.401,-2.09 2.091,-4.64 2.091,-7.67 0,-4.17 -1.771,-7.63 -5.32,-10.37 -3.56,-2.73 -7.97,-4.1 -13.25,-4.1 -5.281,0 -9.651,1.25 -13.111,3.74 -3.449,2.5 -5.489,5.86 -6.12,10.08 l 7.99,1.66 c 0.441,-2.69 1.641,-4.78 3.601,-6.26 1.97,-1.49 4.59,-2.24 7.85,-2.24 2.98,0 5.41,0.69 7.309,2.06 1.901,1.36 2.841,3.1 2.841,5.22 0,1.39 -0.4,2.6 -1.221,3.63 -0.819,1.03 -1.88,1.84 -3.199,2.41 -1.32,0.58 -2.841,1.14 -4.54,1.7 -1.7,0.55 -3.44,1.03 -5.221,1.44 -1.779,0.4 -3.519,0.99 -5.219,1.76 -1.701,0.77 -3.22,1.63 -4.54,2.59 -1.321,0.96 -2.38,2.28 -3.201,3.96 -0.819,1.68 -1.219,3.63 -1.219,5.83 0,4.08 1.69,7.48 5.07,10.19 3.39,2.71 7.6,4.07 12.64,4.07 4.99,0 9.139,-1.28 12.46,-3.85 C -2.591,7.4 -0.63,4.08 0,0" /></g><g
                 id="g148"
                 transform="translate(802.9404,390.3604)"><path
                   id="path146"
                   style="fill:#ffffff;fill-opacity:1;fill-rule:nonzero;stroke:none"
                   d="M 0,0 H 11.729 C 11.399,1.439 10.71,2.609 9.649,3.51 8.6,4.409 7.329,4.859 5.859,4.859 4.42,4.859 3.17,4.409 2.109,3.51 1.05,2.609 0.35,1.439 0,0 m 13.329,4.97 c 1.921,-2.22 2.7,-4.92 2.36,-8.09 H -0.11 c 0.269,-1.57 0.979,-2.84 2.13,-3.82 1.139,-0.97 2.52,-1.46 4.139,-1.46 1.25,0 2.361,0.309 3.351,0.929 0.979,0.62 1.74,1.46 2.29,2.531 l 3.29,-1.491 c -0.851,-1.639 -2.061,-2.96 -3.62,-3.949 -1.571,-0.98 -3.38,-1.48 -5.42,-1.48 -2.861,0 -5.26,0.96 -7.21,2.889 -1.941,1.92 -2.91,4.321 -2.91,7.181 0,2.859 0.95,5.26 2.86,7.199 1.899,1.941 4.26,2.91 7.069,2.91 3.071,0 5.561,-1.12 7.47,-3.349" /></g><path
                 id="path150"
                 style="fill:#ffffff;fill-opacity:1;fill-rule:nonzero;stroke:none"
                 d="m 809.31,432.52 h -7.989 v 50.4 h 7.989 z" /><g
                 id="g154"
                 transform="translate(808.8799,540.4199)"><path
                   id="path152"
                   style="fill:#ffffff;fill-opacity:1;fill-rule:nonzero;stroke:none"
                   d="m 0,0 -7.35,-2.88 c -1.44,3.03 -3.56,5.48 -6.37,7.35 -2.81,1.87 -5.99,2.81 -9.54,2.81 -5.139,0 -9.44,-1.79 -12.92,-5.37 -3.49,-3.57 -5.219,-7.98 -5.219,-13.21 0,-5.23 1.729,-9.639 5.219,-13.21 3.48,-3.58 7.781,-5.37 12.92,-5.37 3.55,0 6.73,0.941 9.54,2.81 2.81,1.87 4.93,4.32 6.37,7.35 L 0,-22.6 c -1.88,-4.129 -4.88,-7.6 -9,-10.41 -4.13,-2.8 -8.88,-4.21 -14.26,-4.21 -7.44,0 -13.69,2.5 -18.76,7.491 -5.06,4.989 -7.59,11.129 -7.59,18.429 0,7.3 2.53,13.44 7.59,18.43 5.07,4.99 11.32,7.49 18.76,7.49 5.38,0 10.13,-1.4 14.26,-4.21 C -4.88,7.6 -1.88,4.13 0,0" /></g><g
                 id="g158"
                 transform="translate(795.5801,398.5596)"><path
                   id="path156"
                   style="fill:#ffffff;fill-opacity:1;fill-rule:nonzero;stroke:none"
                   d="M 0,0 -4.18,-0.869 C -4.4,0.471 -5,1.561 -5.97,2.4 c -0.97,0.83 -2.2,1.25 -3.7,1.25 -1.391,0 -2.54,-0.349 -3.43,-1.04 -0.9,-0.7 -1.35,-1.57 -1.35,-2.61 0,-0.909 0.36,-1.67 1.09,-2.27 0.72,-0.61 1.63,-1.049 2.72,-1.32 1.1,-0.26 2.28,-0.599 3.55,-1.019 1.27,-0.42 2.45,-0.88 3.55,-1.37 1.09,-0.491 2,-1.291 2.72,-2.39 0.73,-1.11 1.09,-2.46 1.09,-4.051 0,-2.21 -0.93,-4.029 -2.77,-5.47 -1.84,-1.45 -4.13,-2.17 -6.87,-2.17 -2.74,0 -5,0.661 -6.79,1.981 -1.8,1.309 -2.861,3.09 -3.18,5.319 l 4.15,0.87 c 0.22,-1.42 0.84,-2.519 1.86,-3.299 1.019,-0.79 2.38,-1.18 4.07,-1.18 1.55,0 2.81,0.359 3.79,1.079 0.99,0.721 1.48,1.641 1.48,2.75 0,0.74 -0.21,1.381 -0.64,1.921 -0.42,0.55 -0.97,0.97 -1.66,1.279 -0.68,0.3 -1.47,0.601 -2.35,0.891 -0.881,0.29 -1.79,0.54 -2.71,0.76 -0.921,0.21 -1.82,0.53 -2.7,0.929 -0.89,0.41 -1.67,0.861 -2.36,1.37 -0.68,0.51 -1.24,1.201 -1.66,2.09 -0.42,0.891 -0.63,1.91 -0.63,3.08 0,2.151 0.87,3.941 2.63,5.37 1.75,1.43 3.94,2.151 6.549,2.151 2.591,0 4.75,-0.681 6.46,-2.03 C -1.34,3.91 -0.32,2.16 0,0" /></g><g
                 id="g162"
                 transform="translate(793.1797,469.8203)"><path
                   id="path160"
                   style="fill:#ffffff;fill-opacity:1;fill-rule:nonzero;stroke:none"
                   d="M 0,0 -8.06,-1.66 C -8.5,0.88 -9.649,2.949 -11.52,4.529 -13.39,6.12 -15.77,6.91 -18.649,6.91 -21.34,6.91 -23.54,6.25 -25.27,4.93 -27,3.609 -27.859,1.96 -27.859,0 c 0,-1.73 0.689,-3.17 2.089,-4.32 1.39,-1.16 3.14,-1.981 5.25,-2.491 2.11,-0.5 4.39,-1.149 6.84,-1.939 2.451,-0.79 4.731,-1.66 6.84,-2.59 2.111,-0.94 3.861,-2.45 5.26,-4.54 1.391,-2.091 2.08,-4.641 2.08,-7.671 0,-4.17 -1.77,-7.63 -5.319,-10.369 -3.561,-2.73 -7.971,-4.101 -13.25,-4.101 -5.281,0 -9.651,1.25 -13.111,3.741 -3.45,2.5 -5.49,5.86 -6.12,10.08 l 8,1.66 c 0.43,-2.69 1.63,-4.78 3.601,-6.261 1.96,-1.489 4.579,-2.229 7.849,-2.229 2.97,0 5.411,0.679 7.3,2.05 1.901,1.37 2.851,3.1 2.851,5.219 0,1.391 -0.41,2.601 -1.231,3.631 -0.809,1.029 -1.88,1.84 -3.2,2.409 -1.319,0.58 -2.83,1.141 -4.54,1.7 -1.7,0.55 -3.439,1.031 -5.22,1.441 -1.77,0.399 -3.509,0.99 -5.219,1.76 -1.701,0.769 -3.21,1.63 -4.531,2.59 -1.32,0.959 -2.389,2.28 -3.21,3.959 -0.81,1.681 -1.219,3.63 -1.219,5.831 0,4.08 1.689,7.48 5.069,10.19 3.391,2.71 7.601,4.069 12.641,4.069 4.989,0 9.139,-1.279 12.46,-3.849 C -2.59,7.399 -0.62,4.08 0,0" /></g><g
                 id="g166"
                 transform="translate(788.4297,625.7202)"><path
                   id="path164"
                   style="fill:#ffffff;fill-opacity:1;fill-rule:nonzero;stroke:none"
                   d="m 0,0 v -50.4 h -7.92 v 21.67 H -34.989 V -50.4 h -7.99 V 0 h 7.99 V -21.67 H -7.92 V 0 Z" /></g><g
                 id="g170"
                 transform="translate(760.7803,383.1699)"><path
                   id="path168"
                   style="fill:#ffffff;fill-opacity:1;fill-rule:nonzero;stroke:none"
                   d="m 0,0 c 0.52,-0.53 0.79,-1.16 0.79,-1.9 0,-0.73 -0.27,-1.36 -0.79,-1.89 -0.521,-0.54 -1.141,-0.8 -1.86,-0.8 -0.73,0 -1.35,0.26 -1.87,0.8 -0.52,0.53 -0.791,1.16 -0.791,1.89 0,0.74 0.271,1.37 0.791,1.9 0.52,0.54 1.14,0.8 1.87,0.8 C -1.141,0.8 -0.521,0.54 0,0" /></g><g
                 id="g174"
                 transform="translate(750.7002,392.1797)"><path
                   id="path172"
                   style="fill:#ffffff;fill-opacity:1;fill-rule:nonzero;stroke:none"
                   d="m 0,0 c 0,2.761 -0.88,5.04 -2.63,6.84 -1.761,1.801 -3.99,2.7 -6.71,2.7 h -5.341 V -9.54 h 5.341 c 2.72,0 4.949,0.91 6.71,2.721 C -0.88,-5.01 0,-2.729 0,0 M 0.47,9.48 C 2.99,6.94 4.26,3.78 4.26,0 c 0,-3.77 -1.27,-6.93 -3.79,-9.479 -2.531,-2.55 -5.7,-3.821 -9.51,-3.821 h -9.78 v 26.601 h 9.78 c 3.81,0 6.979,-1.271 9.51,-3.821" /></g><path
                 id="path176"
                 style="fill:#ffffff;fill-opacity:1;fill-rule:nonzero;stroke:none"
                 d="m 752.21,503.92 h -7.99 v 50.4 h 7.99 z" /><g
                 id="g180"
                 transform="translate(741.6299,467.5801)"><path
                   id="path178"
                   style="fill:#ffffff;fill-opacity:1;fill-rule:nonzero;stroke:none"
                   d="M 0,0 C 0,2.36 -0.79,4.31 -2.38,5.87 -3.96,7.43 -6,8.21 -8.5,8.21 H -21.38 V -8.2 H -8.5 c 2.5,0 4.54,0.78 6.12,2.34 C -0.79,-4.3 0,-2.35 0,0 M -4.03,-15.04 9.5,-35.061 h -9.57 l -13.18,19.581 h -8.13 v -19.581 h -8 V 15.34 H -8.5 c 4.95,0 8.97,-1.45 12.061,-4.361 C 6.66,8.08 8.21,4.4 8.21,-0.07 c 0,-3.69 -1.109,-6.91 -3.31,-9.64 -2.21,-2.74 -5.19,-4.52 -8.93,-5.33" /></g><g
                 id="g184"
                 transform="translate(719.2402,605.0601)"><path
                   id="path182"
                   style="fill:#ffffff;fill-opacity:1;fill-rule:nonzero;stroke:none"
                   d="m 0,0 21.67,-29.74 h -9.65 l -17.491,23.69 -7.349,-8.07 v -15.62 h -7.991 v 50.4 h 7.991 V -3.17 L 8.859,20.66 h 10 z" /></g><g
                 id="g188"
                 transform="translate(735.7305,554.3198)"><path
                   id="path186"
                   style="fill:#ffffff;fill-opacity:1;fill-rule:nonzero;stroke:none"
                   d="M 0,0 V -50.4 H -7.931 V -48.82 0 Z" /></g><g
                 id="g192"
                 transform="translate(727.7998,505.5)"><path
                   id="path190"
                   style="fill:#ffffff;fill-opacity:1;fill-rule:nonzero;stroke:none"
                   d="m 0,0 v -1.58 h -7.55 l -20.309,48.82 v 1.58 h 7.489 z" /></g><g
                 id="g196"
                 transform="translate(717.7305,398.4502)"><path
                   id="path194"
                   style="fill:#ffffff;fill-opacity:1;fill-rule:nonzero;stroke:none"
                   d="M 0,0 V -3.8 C -2.07,-3.22 -3.83,-3.4 -5.29,-4.351 -6.74,-5.3 -7.471,-6.71 -7.471,-8.59 v -10.98 h -3.92 v 19.42 h 3.92 v -5.13 c 0.62,2.3 1.601,3.86 2.931,4.67 C -3.211,0.2 -1.7,0.41 0,0" /></g><g
                 id="g200"
                 transform="translate(704.7695,439.6504)"><path
                   id="path198"
                   style="fill:#ffffff;fill-opacity:1;fill-rule:nonzero;stroke:none"
                   d="M 0,0 V -7.131 H -32.26 V 43.27 H 0 V 36.14 H -24.27 V 21.6 H -0.72 V 14.54 H -24.27 V 0 Z" /></g><g
                 id="g204"
                 transform="translate(686.8799,390.3604)"><path
                   id="path202"
                   style="fill:#ffffff;fill-opacity:1;fill-rule:nonzero;stroke:none"
                   d="M 0,0 H 11.73 C 11.41,1.439 10.71,2.609 9.66,3.51 8.601,4.409 7.33,4.859 5.87,4.859 4.42,4.859 3.17,4.409 2.11,3.51 1.05,2.609 0.351,1.439 0,0 m 13.33,4.97 c 1.92,-2.22 2.71,-4.92 2.36,-8.09 H -0.11 C 0.16,-4.69 0.87,-5.96 2.021,-6.94 3.16,-7.91 4.55,-8.4 6.16,-8.4 c 1.25,0 2.361,0.309 3.35,0.929 0.98,0.62 1.75,1.46 2.29,2.531 l 3.29,-1.491 c -0.85,-1.639 -2.05,-2.96 -3.62,-3.949 -1.57,-0.98 -3.38,-1.48 -5.42,-1.48 -2.86,0 -5.26,0.96 -7.199,2.889 -1.951,1.92 -2.921,4.321 -2.921,7.181 0,2.859 0.95,5.26 2.86,7.199 1.9,1.941 4.26,2.91 7.08,2.91 3.06,0 5.55,-1.12 7.46,-3.349" /></g><g
                 id="g208"
                 transform="translate(699.9404,552.7402)"><path
                   id="path206"
                   style="fill:#ffffff;fill-opacity:1;fill-rule:nonzero;stroke:none"
                   d="M 0,0 V -48.82 H -7.99 V 1.58 H 0 Z" /></g><g
                 id="g212"
                 transform="translate(678.1299,594.6201)"><path
                   id="path210"
                   style="fill:#ffffff;fill-opacity:1;fill-rule:nonzero;stroke:none"
                   d="M 0,0 -10.229,28.8 -20.52,0 Z M -3.03,31.1 15.41,-19.3 H 6.91 L 2.59,-7.13 h -25.7 l -4.32,-12.17 h -8.14 l 18.43,50.4 z" /></g><g
                 id="g216"
                 transform="translate(683.4502,554.3198)"><path
                   id="path214"
                   style="fill:#ffffff;fill-opacity:1;fill-rule:nonzero;stroke:none"
                   d="m 0,0 v -50.4 h -7.92 v 21.67 H -34.99 V -50.4 h -7.99 V 0 h 7.99 V -21.669 H -7.92 V 0 Z" /></g><g
                 id="g220"
                 transform="translate(680.6797,382.4199)"><path
                   id="path218"
                   style="fill:#ffffff;fill-opacity:1;fill-rule:nonzero;stroke:none"
                   d="m 0,0 v -3.54 h -2.05 c -2.46,0 -4.28,0.58 -5.45,1.75 -1.17,1.16 -1.76,2.95 -1.76,5.36 v 8.77 h -8.51 V -3.54 h -3.919 v 15.88 h -4.071 v 3.54 h 4.071 v 1.59 c 0,2.41 0.58,4.2 1.75,5.36 1.169,1.17 2.99,1.75 5.45,1.75 h 2.099 v -3.53 h -2.099 c -1.141,0 -1.981,-0.27 -2.5,-0.8 -0.521,-0.53 -0.781,-1.39 -0.781,-2.59 v -1.78 h 8.51 v 6.31 l 3.92,1.25 V 15.88 H 0 V 12.34 H -5.34 V 3.38 c 0,-1.19 0.26,-2.05 0.79,-2.59 C -4.029,0.26 -3.199,0 -2.05,0 Z" /></g><g
                 id="g224"
                 transform="translate(674.96,697.1201)"><path
                   id="path222"
                   style="fill:#ffffff;fill-opacity:1;fill-rule:nonzero;stroke:none"
                   d="M 0,0 V -7.13 H -16.27 V -50.4 h -7.92 V -7.13 H -40.46 V 0 Z" /></g><g
                 id="g228"
                 transform="translate(667.6104,482.9199)"><path
                   id="path226"
                   style="fill:#ffffff;fill-opacity:1;fill-rule:nonzero;stroke:none"
                   d="m 0,0 -17.49,-50.4 h -6.7 v 2.38 L -8.061,0 Z" /></g><g
                 id="g232"
                 transform="translate(649.2402,387.2402)"><path
                   id="path230"
                   style="fill:#ffffff;fill-opacity:1;fill-rule:nonzero;stroke:none"
                   d="M 0,0 V 1.06 C -0.3,0.56 -1.021,0.24 -2.17,0.109 L -5.79,-0.34 c -0.94,-0.131 -1.7,-0.41 -2.26,-0.86 -0.56,-0.441 -0.841,-1.04 -0.841,-1.8 0,-0.76 0.281,-1.37 0.841,-1.82 0.56,-0.46 1.32,-0.69 2.26,-0.69 1.62,0 2.99,0.55 4.109,1.65 C -0.561,-2.75 0,-1.471 0,0 M 3.92,4.37 V -8.36 H 0 v 5.17 c -1.17,-3.701 -3.521,-5.55 -7.061,-5.55 -1.639,0 -3.009,0.5 -4.109,1.5 -1.09,1 -1.641,2.309 -1.641,3.929 0,1.901 0.661,3.331 1.981,4.281 1.32,0.95 3,1.54 5.04,1.77 l 3.7,0.38 C -0.7,3.24 0,3.88 0,5.02 0,5.95 -0.351,6.7 -1.061,7.26 -1.771,7.819 -2.7,8.09 -3.851,8.09 -5.021,8.09 -6.01,7.79 -6.82,7.18 -7.62,6.569 -8.141,5.689 -8.36,4.52 l -3.89,0.95 c 0.35,1.83 1.279,3.28 2.8,4.349 1.519,1.08 3.389,1.62 5.599,1.62 2.29,0 4.161,-0.609 5.611,-1.83 C 3.2,8.399 3.92,6.649 3.92,4.37" /></g><g
                 id="g236"
                 transform="translate(643.4199,434.9004)"><path
                   id="path234"
                   style="fill:#ffffff;fill-opacity:1;fill-rule:nonzero;stroke:none"
                   d="M 0,0 V -2.381 H -7.13 L -24.62,48.02 h 8.49 z" /></g><g
                 id="g240"
                 transform="translate(638.6699,582.4502)"><path
                   id="path238"
                   style="fill:#ffffff;fill-opacity:1;fill-rule:nonzero;stroke:none"
                   d="M 0,0 V -7.13 H -35.78 V 0 h 2.73 z" /></g><g
                 id="g244"
                 transform="translate(638.6699,618.5898)"><path
                   id="path242"
                   style="fill:#ffffff;fill-opacity:1;fill-rule:nonzero;stroke:none"
                   d="m 0,0 v -6.77 l -33.05,-29.37 h -2.73 v 6.77 L -2.729,0 Z" /></g><g
                 id="g248"
                 transform="translate(638.6699,625.7202)"><path
                   id="path246"
                   style="fill:#ffffff;fill-opacity:1;fill-rule:nonzero;stroke:none"
                   d="M 0,0 V -7.13 H -2.729 -35.78 V 0 Z" /></g><g
                 id="g252"
                 transform="translate(633.4102,540.4199)"><path
                   id="path250"
                   style="fill:#ffffff;fill-opacity:1;fill-rule:nonzero;stroke:none"
                   d="m 0,0 -7.34,-2.88 c -1.44,3.03 -3.56,5.48 -6.37,7.35 -2.811,1.87 -5.99,2.81 -9.54,2.81 -5.141,0 -9.45,-1.79 -12.93,-5.37 -3.48,-3.57 -5.22,-7.98 -5.22,-13.21 0,-5.23 1.74,-9.639 5.22,-13.21 3.48,-3.58 7.789,-5.37 12.93,-5.37 3.55,0 6.729,0.941 9.54,2.81 2.81,1.87 4.93,4.32 6.37,7.35 L 0,-22.6 c -1.87,-4.129 -4.87,-7.6 -9,-10.41 -4.12,-2.8 -8.88,-4.21 -14.25,-4.21 -7.44,0 -13.69,2.5 -18.76,7.491 -5.06,4.989 -7.591,11.129 -7.591,18.429 0,7.3 2.531,13.44 7.591,18.43 5.07,4.99 11.32,7.49 18.76,7.49 5.37,0 10.13,-1.4 14.25,-4.21 C -4.87,7.6 -1.87,4.13 0,0" /></g><g
                 id="g256"
                 transform="translate(631.25,684.02)"><path
                   id="path254"
                   style="fill:#ffffff;fill-opacity:1;fill-rule:nonzero;stroke:none"
                   d="m 0,0 -8.06,-1.66 c -0.43,2.54 -1.58,4.61 -3.45,6.19 -1.88,1.59 -4.25,2.38 -7.13,2.38 -2.69,0 -4.9,-0.66 -6.63,-1.98 C -27,3.61 -27.86,1.96 -27.86,0 c 0,-1.73 0.7,-3.17 2.09,-4.32 1.39,-1.16 3.14,-1.98 5.26,-2.49 2.11,-0.5 4.39,-1.15 6.84,-1.94 2.44,-0.79 4.72,-1.66 6.84,-2.59 2.11,-0.94 3.86,-2.45 5.25,-4.54 1.39,-2.09 2.09,-4.64 2.09,-7.67 0,-4.17 -1.78,-7.63 -5.33,-10.37 -3.55,-2.73 -7.97,-4.1 -13.25,-4.1 -5.28,0 -9.64,1.25 -13.1,3.74 -3.46,2.5 -5.5,5.86 -6.12,10.08 l 7.99,1.66 c 0.43,-2.69 1.63,-4.78 3.6,-6.26 1.97,-1.49 4.58,-2.24 7.85,-2.24 2.98,0 5.41,0.69 7.31,2.06 1.89,1.36 2.84,3.1 2.84,5.22 0,1.39 -0.41,2.6 -1.22,3.63 -0.82,1.03 -1.89,1.84 -3.21,2.41 -1.32,0.58 -2.83,1.14 -4.53,1.7 -1.71,0.55 -3.45,1.03 -5.22,1.44 -1.78,0.4 -3.52,0.99 -5.22,1.76 -1.71,0.77 -3.22,1.63 -4.54,2.59 -1.32,0.96 -2.39,2.28 -3.2,3.96 -0.82,1.68 -1.23,3.63 -1.23,5.83 0,4.08 1.7,7.48 5.08,10.19 3.38,2.71 7.6,4.07 12.64,4.07 4.99,0 9.14,-1.28 12.45,-3.85 C -2.59,7.4 -0.62,4.08 0,0" /></g><g
                 id="g260"
                 transform="translate(621.9404,407)"><path
                   id="path258"
                   style="fill:#ffffff;fill-opacity:1;fill-rule:nonzero;stroke:none"
                   d="m 0,0 v -28.12 h -3.921 v 5.62 l -1,0.48 c 0.671,1.03 1,2.22 1,3.59 0,1.39 -0.329,2.59 -1,3.63 l 1,0.47 V 0 Z" /></g><g
                 id="g264"
                 transform="translate(618.0195,392.6699)"><path
                   id="path262"
                   style="fill:#ffffff;fill-opacity:1;fill-rule:nonzero;stroke:none"
                   d="m 0,0 -1,-0.47 c -0.22,0.34 -0.479,0.66 -0.77,0.97 -1.179,1.21 -2.679,1.82 -4.5,1.82 -1.639,0 -3.04,-0.61 -4.179,-1.84 -1.151,-1.23 -1.721,-2.76 -1.721,-4.58 0,-1.8 0.57,-3.31 1.721,-4.54 1.139,-1.23 2.54,-1.839 4.179,-1.839 1.821,0 3.321,0.599 4.5,1.819 0.291,0.31 0.55,0.63 0.77,0.971 L 0,-8.17 c -0.6,-1.84 -1.56,-3.309 -2.89,-4.38 -1.33,-1.08 -2.899,-1.62 -4.689,-1.62 -2.46,0 -4.521,0.96 -6.16,2.89 -1.641,1.92 -2.46,4.32 -2.46,7.18 0,2.86 0.819,5.26 2.46,7.2 1.639,1.94 3.7,2.91 6.16,2.91 1.79,0 3.359,-0.54 4.689,-1.62 C -1.56,3.32 -0.6,1.85 0,0" /></g><path
                 id="path266"
                 style="fill:#ffffff;fill-opacity:1;fill-rule:nonzero;stroke:none"
                 d="m 613.9,432.52 h -7.99 v 50.4 h 7.99 z" /><g
                 id="g270"
                 transform="translate(583.29,390.3604)"><path
                   id="path268"
                   style="fill:#ffffff;fill-opacity:1;fill-rule:nonzero;stroke:none"
                   d="M 0,0 H 11.729 C 11.41,1.439 10.71,2.609 9.66,3.51 8.6,4.409 7.34,4.859 5.87,4.859 4.42,4.859 3.17,4.409 2.11,3.51 1.06,2.609 0.35,1.439 0,0 m 13.34,4.97 c 1.91,-2.22 2.7,-4.92 2.35,-8.09 h -15.8 c 0.28,-1.57 0.99,-2.84 2.13,-3.82 1.15,-0.97 2.53,-1.46 4.15,-1.46 1.24,0 2.35,0.309 3.34,0.929 0.98,0.62 1.75,1.46 2.29,2.531 l 3.29,-1.491 c -0.85,-1.639 -2.05,-2.96 -3.62,-3.949 -1.57,-0.98 -3.38,-1.48 -5.42,-1.48 -2.86,0 -5.26,0.96 -7.2,2.889 -1.94,1.92 -2.92,4.321 -2.92,7.181 0,2.859 0.96,5.26 2.86,7.199 1.91,1.941 4.26,2.91 7.08,2.91 3.06,0 5.55,-1.12 7.47,-3.349" /></g><g
                 id="g274"
                 transform="translate(583.2305,594.6201)"><path
                   id="path272"
                   style="fill:#ffffff;fill-opacity:1;fill-rule:nonzero;stroke:none"
                   d="M 0,0 -10.221,28.8 -20.521,0 Z m -3.021,31.1 18.43,-50.4 h -8.5 L 2.59,-7.13 h -25.7 l -4.321,-12.17 h -8.139 l 18.439,50.4 z" /></g><g
                 id="g278"
                 transform="translate(597.4199,482.9199)"><path
                   id="path276"
                   style="fill:#ffffff;fill-opacity:1;fill-rule:nonzero;stroke:none"
                   d="M 0,0 V -50.4 H -7.92 V -48.82 0 Z" /></g><g
                 id="g282"
                 transform="translate(575.5996,666.02)"><path
                   id="path280"
                   style="fill:#ffffff;fill-opacity:1;fill-rule:nonzero;stroke:none"
                   d="M 0,0 -10.22,28.8 -20.52,0 Z M -3.02,31.1 15.41,-19.3 H 6.91 L 2.591,-7.13 h -25.7 L -27.43,-19.3 h -8.14 l 18.43,50.4 z" /></g><g
                 id="g286"
                 transform="translate(589.5,434.0996)"><path
                   id="path284"
                   style="fill:#ffffff;fill-opacity:1;fill-rule:nonzero;stroke:none"
                   d="m 0,0 v -1.58 h -7.56 l -20.31,48.82 v 1.58 h 7.49 z" /></g><g
                 id="g290"
                 transform="translate(578.4102,511.0498)"><path
                   id="path288"
                   style="fill:#ffffff;fill-opacity:1;fill-rule:nonzero;stroke:none"
                   d="m 0,0 v -7.13 h -32.26 v 50.4 H 0 V 36.14 H -24.271 V 21.601 H -0.72 V 14.54 H -24.271 V 0 Z" /></g><g
                 id="g294"
                 transform="translate(575.75,390.4697)"><path
                   id="path292"
                   style="fill:#ffffff;fill-opacity:1;fill-rule:nonzero;stroke:none"
                   d="m 0,0 v -11.59 h -3.92 v 10.981 c 0,1.5 -0.4,2.729 -1.21,3.71 -0.81,0.969 -1.81,1.46 -3.01,1.46 -1.34,0 -2.44,-0.491 -3.3,-1.46 C -11.65,2.851 -11.84,2.59 -12,2.32 l -1.07,0.491 c 0.45,1.649 1.24,2.96 2.37,3.939 1.14,0.971 2.46,1.46 3.98,1.46 1.97,0 3.58,-0.77 4.84,-2.319 C -0.63,4.351 0,2.38 0,0" /></g><g
                 id="g298"
                 transform="translate(562.6797,393.2803)"><path
                   id="path296"
                   style="fill:#ffffff;fill-opacity:1;fill-rule:nonzero;stroke:none"
                   d="M 0,0 1.07,-0.49 C 0.58,-1.32 0.34,-2.3 0.34,-3.42 V -14.4 h -3.92 v 10.98 c 0,1.5 -0.399,2.73 -1.199,3.71 -0.79,0.97 -1.79,1.46 -2.981,1.46 -1.349,0 -2.45,-0.49 -3.309,-1.46 -0.111,-0.12 -0.21,-0.25 -0.301,-0.38 l -0.989,0.36 c 0.519,1.589 1.309,2.85 2.37,3.759 1.059,0.91 2.3,1.37 3.719,1.37 1.52,0 2.831,-0.489 3.94,-1.46 C -1.22,2.96 -0.449,1.649 0,0" /></g><g
                 id="g302"
                 transform="translate(561.6299,481.3398)"><path
                   id="path300"
                   style="fill:#ffffff;fill-opacity:1;fill-rule:nonzero;stroke:none"
                   d="M 0,0 V -48.82 H -7.99 V 1.58 H 0 Z" /></g><g
                 id="g306"
                 transform="translate(550.3203,393.5498)"><path
                   id="path304"
                   style="fill:#ffffff;fill-opacity:1;fill-rule:nonzero;stroke:none"
                   d="M 0,0 0.989,-0.359 C 0.33,-1.27 0,-2.38 0,-3.689 V -14.67 H -3.92 V 4.75 H 0 Z" /></g><g
                 id="g310"
                 transform="translate(525.0601,605.0601)"><path
                   id="path308"
                   style="fill:#ffffff;fill-opacity:1;fill-rule:nonzero;stroke:none"
                   d="m 0,0 21.67,-29.74 h -9.65 l -17.5,23.69 -7.34,-8.07 v -15.62 h -7.99 v 50.4 h 7.99 V -3.17 L 8.85,20.66 h 10.01 z" /></g><g
                 id="g314"
                 transform="translate(545.8604,482.9199)"><path
                   id="path312"
                   style="fill:#ffffff;fill-opacity:1;fill-rule:nonzero;stroke:none"
                   d="m 0,0 v -31.18 c 0,-5.85 -1.98,-10.64 -5.94,-14.36 -3.96,-3.72 -9.03,-5.58 -15.22,-5.58 -6.151,0 -11.21,1.87 -15.2,5.62 -3.98,3.74 -5.971,8.521 -5.971,14.32 V 0 h 7.991 v -31.18 c 0,-3.69 1.22,-6.72 3.67,-9.07 2.45,-2.35 5.62,-3.53 9.51,-3.53 3.98,0 7.18,1.18 9.61,3.53 2.42,2.35 3.63,5.38 3.63,9.07 V 0 Z" /></g><g
                 id="g318"
                 transform="translate(538.2598,387.2402)"><path
                   id="path316"
                   style="fill:#ffffff;fill-opacity:1;fill-rule:nonzero;stroke:none"
                   d="M 0,0 V 1.06 C -0.3,0.56 -1.02,0.24 -2.17,0.109 L -5.79,-0.34 c -0.94,-0.131 -1.7,-0.41 -2.26,-0.86 -0.56,-0.441 -0.84,-1.04 -0.84,-1.8 0,-0.76 0.28,-1.37 0.84,-1.82 0.56,-0.46 1.32,-0.69 2.26,-0.69 1.62,0 2.99,0.55 4.11,1.65 C -0.56,-2.75 0,-1.471 0,0 M 3.92,4.37 V -8.36 H 0 v 5.17 c -1.17,-3.701 -3.52,-5.55 -7.06,-5.55 -1.64,0 -3.01,0.5 -4.11,1.5 -1.09,1 -1.64,2.309 -1.64,3.929 0,1.901 0.66,3.331 1.98,4.281 1.32,0.95 3,1.54 5.04,1.77 l 3.7,0.38 C -0.7,3.24 0,3.88 0,5.02 0,5.95 -0.35,6.7 -1.06,7.26 -1.77,7.819 -2.7,8.09 -3.85,8.09 -5.02,8.09 -6.01,7.79 -6.81,7.18 -7.62,6.569 -8.14,5.689 -8.36,4.52 l -3.89,0.95 c 0.35,1.83 1.28,3.28 2.8,4.349 1.52,1.08 3.39,1.62 5.6,1.62 2.29,0 4.16,-0.609 5.61,-1.83 C 3.2,8.399 3.92,6.649 3.92,4.37" /></g><g
                 id="g322"
                 transform="translate(541.1797,554.3198)"><path
                   id="path320"
                   style="fill:#ffffff;fill-opacity:1;fill-rule:nonzero;stroke:none"
                   d="M 0,0 V -7.13 H -16.27 V -50.4 h -7.919 v 43.27 h -16.27 V 0 Z" /></g><g
                 id="g326"
                 transform="translate(536.5,653.8501)"><path
                   id="path324"
                   style="fill:#ffffff;fill-opacity:1;fill-rule:nonzero;stroke:none"
                   d="m 0,0 v -7.13 h -32.25 v 50.4 H 0 V 36.14 H -24.26 V 21.6 H -0.72 V 14.54 H -24.26 V 0 Z" /></g><g
                 id="g330"
                 transform="translate(522.3101,390.4697)"><path
                   id="path328"
                   style="fill:#ffffff;fill-opacity:1;fill-rule:nonzero;stroke:none"
                   d="m 0,0 v -11.59 h -3.92 v 10.981 c 0,1.5 -0.47,2.729 -1.41,3.71 -0.95,0.969 -2.12,1.46 -3.52,1.46 -1.56,0 -2.85,-0.491 -3.84,-1.46 -0.25,-0.25 -0.47,-0.511 -0.66,-0.781 l -0.84,0.491 c 0.53,1.679 1.39,2.989 2.6,3.95 1.21,0.969 2.62,1.449 4.24,1.449 2.16,0 3.93,-0.77 5.3,-2.319 C -0.68,4.351 0,2.38 0,0" /></g><g
                 id="g334"
                 transform="translate(508.1201,393.2803)"><path
                   id="path332"
                   style="fill:#ffffff;fill-opacity:1;fill-rule:nonzero;stroke:none"
                   d="M 0,0 0.84,-0.49 C 0.28,-1.32 0,-2.3 0,-3.42 V -14.4 H -3.92 V 5.02 H 0 Z" /></g></g></g></g></g></g></g></svg>
